<svg xmlns="http://www.w3.org/2000/svg" width="48" height="48" viewBox="0 0 48 48">
    <g fill="none" fill-rule="evenodd">
        <g>
            <g>
                <g>
                    <g>
                        <path fill="#FFF" d="M35.5 12c5.247 0 9.5 4.253 9.5 9.5S40.747 31 35.5 31 26 26.747 26 21.5s4.253-9.5 9.5-9.5zM35 26l-3.294.001c.734 2.152 1.96 3.64 3.295 3.943L35 26zm1 0v3.943c1.334-.302 2.56-1.79 3.294-3.942L36 26zm-7.712.001c.978 1.564 2.451 2.787 4.2 3.45-.766-.87-1.397-2.055-1.833-3.45h-2.367zm14.424 0h-2.367c-.436 1.396-1.068 2.583-1.833 3.449 1.749-.662 3.222-1.885 4.2-3.449zM21 24v2H.5c-.276 0-.5-.224-.5-.5V24h21zm22.986-2l-2.994.001c-.031 1.055-.163 2.064-.378 3h2.634c.418-.924.676-1.936.738-3zm-13.978.001h-2.994c.062 1.064.32 2.076.738 3h2.634c-.215-.936-.347-1.945-.378-3zM36 22v3h3.587c.228-.919.37-1.93.405-2.999L36 22zm-1 0l-3.992.001c.034 1.07.177 2.08.405 3L35 25v-3zM34 0c1.105 0 2 .895 2 2v5h-2V2H6v18h15v2H4V2c0-1.105.895-2 2-2h28zm6.614 17.999c.216.936.347 1.946.379 3.001h2.993c-.062-1.064-.32-2.077-.738-3.001h-2.634zM30.385 18h-2.633c-.418.924-.676 1.936-.738 3h2.993c.032-1.055.163-2.064.378-3zm9.202 0L36 17.998V21h3.992c-.034-1.07-.177-2.08-.405-3zM35 18h-3.587c-.228.92-.37 1.93-.405 3H35v-3zm0-4.944c-1.333.302-2.56 1.791-3.294 3.944H35v-3.944zm-2.513.495l-.128.048c-1.693.674-3.117 1.875-4.071 3.401h2.367c.436-1.397 1.068-2.583 1.832-3.45zM36 13.057v3.942h3.294c-.734-2.151-1.96-3.64-3.294-3.942zm2.513.492c.765.87 1.396 2.055 1.832 3.45h2.367c-.978-1.564-2.451-2.787-4.2-3.45z" transform="translate(-755 -332) translate(135 180) translate(620 152) translate(0 10)"/>
                        <path fill="#97F134" fill-rule="nonzero" d="M35.5 9C42.404 9 48 14.596 48 21.5S42.404 34 35.5 34 23 28.404 23 21.5 28.596 9 35.5 9zm0 1.6c-6.02 0-10.9 4.88-10.9 10.9 0 6.02 4.88 10.9 10.9 10.9 6.02 0 10.9-4.88 10.9-10.9 0-6.02-4.88-10.9-10.9-10.9z" transform="translate(-755 -332) translate(135 180) translate(620 152) translate(0 10)"/>
                    </g>
                </g>
            </g>
        </g>
    </g>
</svg>
