<svg xmlns="http://www.w3.org/2000/svg" width="102" height="44" viewBox="0 0 102 44">
    <g fill="none" fill-rule="evenodd">
        <g>
            <g>
                <g>
                    <g fill="#FFF">
                        <path d="M12.313 16.613h1.94V.863h-1.94v15.75zM8.322 5.753c0-.34-.068-.667-.204-.98-.136-.31-.32-.59-.555-.838-.236-.223-.508-.406-.82-.547-.314-.141-.645-.212-.999-.212-.353 0-.686.07-.998.212-.311.141-.592.324-.838.547-.224.247-.407.527-.548.839-.142.312-.211.639-.211.98 0 .353.07.686.21.997.142.313.325.592.55.839.245.225.526.406.837.548.312.14.645.212.998.212.354 0 .685-.071.998-.212.313-.142.585-.323.821-.548.235-.247.42-.526.555-.839.136-.311.204-.644.204-.997zm2.807 7.576v1.712H.588V13.33h4.201V9.974c-.27-.058-.528-.14-.777-.247-.563-.235-1.047-.542-1.445-.918-.413-.4-.74-.86-.981-1.378-.243-.517-.363-1.077-.363-1.677 0-.589.12-1.142.363-1.66.241-.518.568-.977.98-1.377.399-.376.877-.68 1.43-.91.553-.23 1.136-.344 1.748-.344.611 0 1.19.115 1.731.344.54.23 1.018.534 1.43.91.411.4.738.86.98 1.377.241.518.361 1.071.361 1.66 0 .6-.12 1.16-.362 1.677-.24.519-.568.978-.98 1.378-.411.376-.888.683-1.429.918-.26.106-.536.189-.83.247v3.355h4.484zM29.77 10.963V3.405H19.585V1.657H31.73v9.306h-1.96zm-7.909 2.772V8.844h1.854v4.891h2.63V8.844h1.871v4.891h4.68v1.713H18.417v-1.713h3.444zM39.494 6.979h8.283V4.807h-8.283v2.172zm0-3.867h8.283V1.116h1.942v7.577h-12.15V1.116h1.925v1.996zm-3.09 7.698h14.48v1.73h-6.268v4.062h-1.96v-4.061h-6.251v-1.73z" transform="translate(-358 -220) translate(335 180) translate(23 40) translate(51 14)"/>
                    </g>
                    <g transform="translate(-358 -220) translate(335 180) translate(23 40)">
                        <circle cx="22" cy="22" r="22" fill="#FFF"/>
                        <path fill="#003963" d="M32.455 20.404c-3.55-2.413-8.097-1.43-10.483 2.2-1.995 3.031-5.003 3.407-6.17 3.407-3.796 0-6.396-2.67-7.165-5.435h-.003l-.02-.077-.025-.094c-.302-1.153-.376-1.705-.376-2.93 0-6.611 6.78-13.97 16.55-13.97 10.003 0 15.727 7.614 17.2 11.846-.024-.074-.047-.148-.073-.224C39.05 6.85 31.202.898 21.96.898 10.33.898.898 10.327.898 21.961c0 10.397 7.5 19.299 17.902 19.299 8.298 0 13.874-4.654 16.431-11.064 1.404-3.506.41-7.627-2.776-9.792"/>
                        <path fill="#EC1A3A" d="M42.094 15.762C40.865 11.635 35.1 3.505 24.763 3.505c-9.77 0-16.55 7.36-16.55 13.97 0 1.226.073 1.777.376 2.93-.126-.504-.194-1.01-.194-1.503 0-6.884 6.895-11.654 13.98-11.654 9.591 0 17.366 7.775 17.366 17.365 0 7.52-4.325 14.027-10.613 17.154l.003.005c8.103-2.935 13.89-10.697 13.89-19.811 0-2.158-.288-4.06-.927-6.199"/>
                    </g>
                </g>
            </g>
        </g>
    </g>
</svg>
